<svg width="30" height="30" viewBox="0 0 30 30" fill="none" xmlns="http://www.w3.org/2000/svg">
<path d="M27.6562 3.75H2.34375C1.97092 3.75043 1.61349 3.89873 1.34986 4.16236C1.08623 4.42599 0.937934 4.78342 0.9375 5.15625V24.8438C0.937934 25.2166 1.08623 25.574 1.34986 25.8376C1.61349 26.1013 1.97092 26.2496 2.34375 26.25H27.6562C28.0291 26.2496 28.3865 26.1013 28.6501 25.8376C28.9138 25.574 29.0621 25.2166 29.0625 24.8438V5.15625C29.0621 4.78342 28.9138 4.42599 28.6501 4.16236C28.3865 3.89873 28.0291 3.75043 27.6562 3.75ZM27.1875 24.375H2.8125V5.625H27.1875V24.375Z" fill="#F4F4F4" fill-opacity="0.75"/>
<path d="M10.7813 20.1563C11.9402 20.1605 13.0661 19.7701 13.9737 19.0494L12.8121 17.5776C12.2346 18.0359 11.5184 18.2841 10.7813 18.2813C9.91101 18.2813 9.07641 17.9356 8.46106 17.3202C7.8457 16.7049 7.5 15.8703 7.5 15C7.5 14.1298 7.8457 13.2952 8.46106 12.6798C9.07641 12.0645 9.91101 11.7188 10.7813 11.7188C11.5184 11.716 12.2346 11.9642 12.8121 12.4225L13.9737 10.9507C13.0661 10.23 11.9402 9.8396 10.7813 9.84378C9.41373 9.84378 8.10222 10.387 7.13523 11.354C6.16825 12.321 5.625 13.6325 5.625 15C5.625 16.3676 6.16825 17.6791 7.13523 18.6461C8.10222 19.613 9.41373 20.1563 10.7813 20.1563Z" fill="#F4F4F4" fill-opacity="0.75"/>
<path d="M20.3572 20.1563C21.5161 20.1605 22.642 19.7701 23.5496 19.0494L22.388 17.5776C21.8106 18.0359 21.0944 18.2841 20.3572 18.2813C19.4869 18.2813 18.6523 17.9356 18.037 17.3202C17.4216 16.7049 17.0759 15.8703 17.0759 15C17.0759 14.1298 17.4216 13.2952 18.037 12.6798C18.6523 12.0645 19.4869 11.7188 20.3572 11.7188C21.0944 11.716 21.8106 11.9642 22.388 12.4225L23.5496 10.9507C22.642 10.23 21.5161 9.8396 20.3572 9.84378C18.9897 9.84378 17.6781 10.387 16.7112 11.354C15.7442 12.321 15.2009 13.6325 15.2009 15C15.2009 16.3676 15.7442 17.6791 16.7112 18.6461C17.6781 19.613 18.9897 20.1563 20.3572 20.1563Z" fill="#F4F4F4" fill-opacity="0.75"/>
</svg>
