<svg width="60" height="60" viewBox="0 0 60 60" fill="none" xmlns="http://www.w3.org/2000/svg">
<g id="play" clip-path="url(#clip0_118_404)">
<path id="control-play" fill-rule="evenodd" clip-rule="evenodd" d="M40 30C40 30.34 39.827 30.657 39.541 30.841L29.531 37.276C29.065 37.574 28.448 37.44 28.149 36.977C27.851 36.512 27.985 35.894 28.449 35.595L37.151 30L26 22.832V39C26 39.553 25.552 40 25 40C24.448 40 24 39.553 24 39V21C24 20.634 24.2 20.298 24.521 20.122C24.841 19.947 25.232 19.959 25.541 20.159L39.541 29.159C39.827 29.343 40 29.66 40 30ZM30 58C14.561 58 2 45.439 2 30C2 14.561 14.561 2 30 2C45.439 2 58 14.561 58 30C58 45.439 45.439 58 30 58ZM30 0C13.458 0 0 13.458 0 30C0 46.542 13.458 60 30 60C46.542 60 60 46.542 60 30C60 13.458 46.542 0 30 0Z" fill="#F4F4F4"/>
</g>
<defs>
<clipPath id="clip0_118_404">
<rect width="60" height="60" fill="white"/>
</clipPath>
</defs>
</svg>
