<svg width="24" height="24" viewBox="0 0 24 24" fill="#F4F4F4" fill-opacity="0.75" xmlns="http://www.w3.org/2000/svg">
<g id="chat_circle_text_thin_icon_171903">
<path id="Vector" d="M12 2.625C10.3587 2.62544 8.74625 3.05665 7.32383 3.87554C5.9014 4.69443 4.71882 5.8723 3.89426 7.29145C3.06971 8.7106 2.63207 10.3213 2.62508 11.9626C2.6181 13.6039 3.04201 15.2183 3.85446 16.6444L3.01034 19.5989C2.95522 19.7918 2.95268 19.9959 3.003 20.1901C3.05331 20.3843 3.15465 20.5616 3.29651 20.7034C3.43836 20.8453 3.61557 20.9466 3.80978 20.997C4.00399 21.0473 4.20812 21.0448 4.40103 20.9897L7.35571 20.1456C8.60315 20.8568 9.99728 21.2719 11.4306 21.3591C12.8638 21.4462 14.298 21.2029 15.6224 20.648C16.9468 20.0931 18.126 19.2414 19.0691 18.1587C20.0123 17.0759 20.6941 15.791 21.062 14.403C21.4299 13.015 21.4741 11.561 21.1912 10.1532C20.9082 8.74544 20.3057 7.42147 19.4301 6.28341C18.5545 5.14535 17.4291 4.22362 16.1409 3.58932C14.8527 2.95502 13.4359 2.6251 12 2.625ZM12 20.625C10.451 20.626 8.93032 20.2093 7.59823 19.4187C7.55431 19.3926 7.50551 19.3757 7.45483 19.3691C7.40415 19.3626 7.35266 19.3664 7.30353 19.3804L4.19504 20.2686C4.13073 20.287 4.06268 20.2878 3.99794 20.271C3.9332 20.2542 3.87412 20.2205 3.82683 20.1732C3.77954 20.1259 3.74576 20.0668 3.72898 20.0021C3.7122 19.9373 3.71304 19.8693 3.73141 19.805L4.61947 16.6966C4.63352 16.6474 4.63737 16.5959 4.63079 16.5453C4.62421 16.4946 4.60733 16.4458 4.58121 16.4019C3.60972 14.7652 3.20683 12.8531 3.43528 10.9636C3.66374 9.07403 4.51071 7.3131 5.84427 5.9551C7.17782 4.59709 8.92307 3.71826 10.8081 3.45551C12.6932 3.19277 14.6123 3.56085 16.2664 4.50244C17.9204 5.44402 19.2167 6.90623 19.9531 8.66127C20.6895 10.4163 20.8249 12.3657 20.338 14.2056C19.8511 16.0456 18.7693 17.6729 17.2612 18.834C15.7531 19.9951 13.9033 20.6248 12 20.625ZM15.375 10.5C15.375 10.5995 15.3355 10.6948 15.2652 10.7652C15.1948 10.8355 15.0995 10.875 15 10.875H9C8.90054 10.875 8.80516 10.8355 8.73483 10.7652C8.66451 10.6948 8.625 10.5995 8.625 10.5C8.625 10.4005 8.66451 10.3052 8.73483 10.2348C8.80516 10.1645 8.90054 10.125 9 10.125H15C15.0995 10.125 15.1948 10.1645 15.2652 10.2348C15.3355 10.3052 15.375 10.4005 15.375 10.5ZM15.375 13.5C15.375 13.5995 15.3355 13.6948 15.2652 13.7652C15.1948 13.8355 15.0995 13.875 15 13.875H9C8.90054 13.875 8.80516 13.8355 8.73483 13.7652C8.66451 13.6948 8.625 13.5995 8.625 13.5C8.625 13.4005 8.66451 13.3052 8.73483 13.2348C8.80516 13.1645 8.90054 13.125 9 13.125H15C15.0995 13.125 15.1948 13.1645 15.2652 13.2348C15.3355 13.3052 15.375 13.4005 15.375 13.5Z"/>
</g>
</svg>
