<svg width="24" height="24" viewBox="0 0 24 24" fill="#F4F4F4" fill-opacity="0.75" xmlns="http://www.w3.org/2000/svg">
<g id="bell_thin_icon_171964">
<path id="Vector" d="M20.3772 16.6827C19.7976 15.6851 19.1067 13.8027 19.1067 10.5V9.83469C19.1067 5.88822 15.9431 2.65403 12.0543 2.62519C12.0361 2.62509 12.0181 2.625 12 2.625C10.1128 2.62758 8.30404 3.37968 6.97144 4.71587C5.63884 6.05206 4.8916 7.86288 4.8941 9.75V10.5C4.8941 13.8026 4.20288 15.6849 3.62298 16.6825C3.52316 16.8532 3.47013 17.0473 3.46925 17.2451C3.46837 17.4429 3.51967 17.6375 3.61797 17.8091C3.71627 17.9808 3.8581 18.1235 4.02916 18.2228C4.20021 18.3222 4.39444 18.3747 4.59225 18.375H8.62506V18.75C8.62506 19.6451 8.98064 20.5036 9.61357 21.1365C10.2465 21.7694 11.105 22.125 12.0001 22.125C12.8952 22.125 13.7536 21.7694 14.3865 21.1365C15.0195 20.5036 15.3751 19.6451 15.3751 18.75V18.375H19.4079C19.6057 18.3747 19.7999 18.3222 19.9709 18.2229C20.1419 18.1235 20.2838 17.9808 20.3821 17.8092C20.4804 17.6376 20.5317 17.4431 20.5308 17.2453C20.53 17.0475 20.477 16.8534 20.3772 16.6827ZM14.6251 18.75C14.6251 19.4462 14.3485 20.1139 13.8562 20.6062C13.3639 21.0984 12.6963 21.375 12.0001 21.375C11.3039 21.375 10.6362 21.0984 10.1439 20.6062C9.65162 20.1139 9.37506 19.4462 9.37506 18.75V18.375H14.6251V18.75ZM19.73 17.4386C19.698 17.4957 19.6511 17.5431 19.5945 17.5759C19.5378 17.6087 19.4733 17.6257 19.4079 17.625H4.59225C4.52676 17.6257 4.46229 17.6087 4.40561 17.5759C4.34893 17.5431 4.30212 17.4956 4.27008 17.4385C4.23626 17.381 4.21853 17.3155 4.21876 17.2488C4.21898 17.1821 4.23715 17.1167 4.27136 17.0594C4.89758 15.9821 5.6441 13.9697 5.6441 10.5V9.75001C5.6416 8.06177 6.30984 6.44168 7.50183 5.24614C8.69382 4.05059 10.3119 3.37753 12.0001 3.37501C12.0163 3.37501 12.0327 3.3751 12.0488 3.3752C15.5269 3.40101 18.3567 6.29875 18.3567 9.8347V10.5C18.3567 13.9697 19.1028 15.9822 19.7287 17.0595C19.7629 17.1167 19.7811 17.1822 19.7813 17.2489C19.7815 17.3156 19.7638 17.3811 19.73 17.4386Z"/>
</g>
</svg>
