<svg width="24" height="24" viewBox="0 0 24 24" fill="#F4F4F4" fill-opacity="0.75" xmlns="http://www.w3.org/2000/svg">
<g id="gear_thin_icon_171753">
<path id="Vector" d="M12.0001 6.37504C10.8876 6.37504 9.80004 6.70494 8.87502 7.32302C7.95 7.9411 7.22903 8.8196 6.80329 9.84743C6.37755 10.8753 6.26615 12.0063 6.48319 13.0974C6.70023 14.1885 7.23596 15.1908 8.02263 15.9775C8.8093 16.7641 9.81157 17.2999 10.9027 17.5169C11.9938 17.734 13.1248 17.6226 14.1527 17.1968C15.1805 16.7711 16.059 16.0501 16.6771 15.1251C17.2952 14.2001 17.6251 13.1125 17.6251 12C17.6234 10.5087 17.0302 9.07895 15.9757 8.02442C14.9212 6.9699 13.4914 6.37673 12.0001 6.37504ZM12.0001 16.875C11.0359 16.875 10.0934 16.5891 9.2917 16.0534C8.49001 15.5177 7.86517 14.7564 7.49619 13.8656C7.12722 12.9748 7.03068 11.9946 7.21878 11.049C7.40688 10.1033 7.87118 9.23466 8.55296 8.55289C9.23474 7.87111 10.1034 7.40681 11.049 7.21871C11.9947 7.03061 12.9749 7.12715 13.8657 7.49612C14.7565 7.8651 15.5178 8.48994 16.0535 9.29162C16.5892 10.0933 16.8751 11.0358 16.8751 12C16.8736 13.2925 16.3595 14.5316 15.4456 15.4455C14.5317 16.3595 13.2926 16.8735 12.0001 16.875ZM20.6251 12.6365V11.3636L21.5284 10.0087C21.6217 9.86899 21.6832 9.71055 21.7086 9.54451C21.734 9.37847 21.7227 9.20888 21.6755 9.04768C21.486 8.42422 21.2364 7.82061 20.9303 7.24534C20.8506 7.0975 20.739 6.96925 20.6036 6.86991C20.4682 6.77057 20.3124 6.70261 20.1474 6.67098L18.549 6.35128L17.6489 5.45118L17.3292 3.85263C17.2975 3.68769 17.2296 3.53185 17.1302 3.39644C17.0309 3.26102 16.9027 3.14941 16.7548 3.06972C16.1795 2.76367 15.5759 2.51414 14.9524 2.32463C14.7912 2.27744 14.6216 2.26617 14.4556 2.2916C14.2895 2.31702 14.1311 2.37853 13.9914 2.4718L12.6366 3.37501H11.3636L10.0088 2.4718C9.86913 2.37851 9.71068 2.31699 9.54464 2.29156C9.3786 2.26613 9.209 2.27742 9.0478 2.32463C8.42432 2.51414 7.8207 2.76367 7.2454 3.06972C7.09753 3.1494 6.96926 3.26101 6.8699 3.39645C6.77055 3.53188 6.7026 3.68775 6.671 3.85272L6.3514 5.45109L5.45121 6.35124L3.85275 6.67089C3.6878 6.70252 3.53196 6.77047 3.39655 6.86981C3.26113 6.96915 3.14953 7.0974 3.06984 7.24524C2.76374 7.82055 2.51417 8.42419 2.32465 9.04768C2.27743 9.20888 2.26613 9.37847 2.29155 9.5445C2.31697 9.71054 2.37849 9.86898 2.47177 10.0087L3.37503 11.3635V12.6364L2.47177 13.9913C2.3785 14.131 2.31699 14.2894 2.29157 14.4554C2.26615 14.6215 2.27744 14.7911 2.32465 14.9523C2.51415 15.5758 2.76368 16.1794 3.06975 16.7547C3.14943 16.9025 3.26104 17.0308 3.39646 17.1301C3.53187 17.2295 3.68771 17.2974 3.85266 17.3291L5.45121 17.6488L6.35131 18.5489L6.67091 20.1474C6.70253 20.3124 6.77048 20.4682 6.86983 20.6036C6.96917 20.7391 7.09742 20.8507 7.24527 20.9304C7.82055 21.2364 8.42416 21.4859 9.04761 21.6755C9.20881 21.7227 9.3784 21.7339 9.54444 21.7085C9.71047 21.6831 9.86891 21.6216 10.0086 21.5283L11.3635 20.625H12.6365L13.9914 21.5283C14.1816 21.6546 14.4047 21.7221 14.633 21.7224C14.7412 21.7226 14.8488 21.7068 14.9524 21.6755C15.5758 21.486 16.1794 21.2365 16.7547 20.9304C16.9025 20.8507 17.0308 20.7391 17.1302 20.6037C17.2295 20.4683 17.2975 20.3124 17.3291 20.1475L17.6488 18.5489L18.5489 17.6488L20.1474 17.3291C20.3124 17.2975 20.4682 17.2296 20.6036 17.1302C20.739 17.0309 20.8506 16.9026 20.9303 16.7548C21.2364 16.1795 21.486 15.5759 21.6755 14.9524C21.7227 14.7912 21.734 14.6217 21.7086 14.4556C21.6832 14.2896 21.6217 14.1311 21.5284 13.9915L20.6251 12.6365ZM20.958 14.7342C20.7826 15.3111 20.5517 15.8697 20.2685 16.4021C20.2405 16.4517 20.202 16.4946 20.1556 16.5277C20.1093 16.5608 20.0563 16.5833 20.0003 16.5937L18.2905 16.9356C18.2179 16.9501 18.1512 16.9858 18.0988 17.0382L17.0382 18.0989C16.9858 18.1513 16.9502 18.2179 16.9356 18.2905L16.5936 20.0004C16.5832 20.0564 16.5607 20.1094 16.5276 20.1557C16.4945 20.202 16.4517 20.2405 16.4021 20.2685C15.8697 20.5517 15.3111 20.7826 14.7342 20.9579C14.6791 20.9734 14.6213 20.9767 14.5648 20.9674C14.5084 20.9581 14.4546 20.9366 14.4074 20.9043L12.958 19.938C12.8964 19.897 12.824 19.875 12.75 19.875H11.25C11.176 19.875 11.1036 19.897 11.042 19.938L9.59258 20.9043C9.54537 20.9366 9.49164 20.9581 9.43518 20.9674C9.37873 20.9766 9.32094 20.9734 9.26588 20.9579C8.68892 20.7825 8.13034 20.5516 7.59798 20.2684C7.54838 20.2405 7.50553 20.202 7.47242 20.1556C7.43931 20.1093 7.41676 20.0563 7.40636 20.0003L7.06445 18.2904C7.04993 18.2178 7.01425 18.1512 6.96191 18.0988L5.90123 17.0381C5.84889 16.9858 5.78223 16.9501 5.70966 16.9356L3.99978 16.5936C3.9438 16.5832 3.89078 16.5607 3.84445 16.5276C3.79812 16.4945 3.7596 16.4516 3.73162 16.402C3.44843 15.8696 3.21754 15.311 3.04219 14.734C3.02673 14.6789 3.02353 14.6211 3.0328 14.5647C3.04206 14.5083 3.06358 14.4545 3.09584 14.4073L4.06203 12.958C4.1031 12.8964 4.12501 12.824 4.12503 12.75V11.25C4.12502 11.1759 4.1031 11.1036 4.06204 11.042L3.09584 9.59265C3.06359 9.54541 3.04207 9.49168 3.0328 9.43524C3.02353 9.3788 3.02674 9.32101 3.04219 9.26594C3.21757 8.68894 3.44851 8.13031 3.73177 7.5979C3.75974 7.54832 3.79824 7.50547 3.84456 7.47237C3.89088 7.43927 3.9439 7.41673 3.99987 7.40633L5.70961 7.06443C5.78221 7.04991 5.84888 7.01424 5.90123 6.96189L6.96201 5.90116C7.01434 5.84879 7.05002 5.7821 7.06455 5.7095L7.40645 3.99976C7.41685 3.94378 7.4394 3.89076 7.4725 3.84443C7.50561 3.79811 7.54848 3.75961 7.59807 3.73165C8.13045 3.44842 8.68905 3.21753 9.26602 3.04221C9.32109 3.02673 9.37889 3.0235 9.43534 3.03276C9.4918 3.04202 9.54553 3.06355 9.59277 3.09582L11.0421 4.06201C11.1037 4.10308 11.1761 4.12499 11.2501 4.125H12.7501C12.8241 4.12499 12.8965 4.10308 12.9581 4.06201L14.4075 3.09582C14.4547 3.06354 14.5084 3.04202 14.5649 3.03276C14.6213 3.0235 14.6791 3.02672 14.7342 3.04221C15.3111 3.21753 15.8697 3.44842 16.4021 3.73165C16.4517 3.75961 16.4946 3.79811 16.5277 3.84444C16.5608 3.89076 16.5833 3.94378 16.5937 3.99976L16.9357 5.70964C16.9503 5.78223 16.9859 5.8489 17.0383 5.90126L18.0989 6.96189C18.1513 7.01423 18.2179 7.0499 18.2905 7.06443L20.0003 7.40642C20.0563 7.41682 20.1093 7.43936 20.1556 7.47246C20.2019 7.50556 20.2404 7.54841 20.2684 7.598C20.5517 8.13037 20.7826 8.68897 20.958 9.26594C20.9734 9.32101 20.9767 9.3788 20.9674 9.43524C20.9581 9.49169 20.9366 9.54541 20.9043 9.59265L19.9381 11.0421C19.897 11.1037 19.8751 11.176 19.8751 11.2501V12.7501C19.8751 12.8241 19.897 12.8965 19.9381 12.9581L20.9043 14.4075C20.9366 14.4547 20.9581 14.5084 20.9674 14.5649C20.9766 14.6213 20.9734 14.6791 20.958 14.7342Z"/>
</g>
</svg>
