<svg xmlns="http://www.w3.org/2000/svg" width="25" height="25" viewBox="0 0 25 25" fill="#FFFFFF" fill-opacity="0.45">
  <path d="M20.836 22.9995C20.644 22.9995 20.4515 22.9265 20.3055 22.7805L15.356 17.831C15.0635 17.5385 15.0635 17.063 15.356 16.7705L16.77 15.356C17.062 15.064 17.5375 15.0645 17.8305 15.356L22.78 20.306C23.0725 20.5985 23.0725 21.0745 22.78 21.367L21.366 22.781C21.22 22.9265 21.028 22.9995 20.836 22.9995ZM17.3005 15.636C17.2365 15.636 17.1725 15.6605 17.1235 15.709L15.7095 17.1235C15.612 17.221 15.612 17.3795 15.7095 17.477L20.659 22.4265C20.7565 22.524 20.915 22.524 21.0125 22.4265L22.4265 21.0125C22.524 20.915 22.524 20.7565 22.4265 20.6585L17.477 15.7085C17.428 15.6605 17.3645 15.636 17.3005 15.636Z" />
  <path d="M9.25 17.5C4.701 17.5 1 13.799 1 9.25C1 4.701 4.701 1 9.25 1C13.799 1 17.5 4.701 17.5 9.25C17.5 11.1015 16.901 12.851 15.767 14.3095C15.6815 14.4185 15.5245 14.4375 15.4165 14.353C15.3075 14.2685 15.2875 14.1115 15.3725 14.0025C16.437 12.633 17 10.9895 17 9.25C17 4.9765 13.5235 1.5 9.25 1.5C4.9765 1.5 1.5 4.9765 1.5 9.25C1.5 13.5235 4.9765 17 9.25 17C11.2635 17 13.172 16.231 14.6225 14.835C14.7215 14.74 14.88 14.742 14.976 14.842C15.0715 14.9415 15.069 15.1 14.969 15.1955C13.425 16.6815 11.394 17.5 9.25 17.5Z" />
  <path d="M16.947 15.532C17.013 15.4665 17.094 15.431 17.178 15.4095L15.7155 13.9475C15.6165 14.0835 15.519 14.2215 15.412 14.351L16.7705 15.709L16.947 15.532Z" />
  <path d="M15.5325 16.9471L15.7095 16.7701L14.351 15.4121C14.2215 15.5196 14.084 15.6166 13.9475 15.7156L15.41 17.1776C15.4315 17.0941 15.467 17.0126 15.5325 16.9471Z" />
</svg>