<svg width="151" height="26" viewBox="0 0 151 26" fill="none" xmlns="http://www.w3.org/2000/svg">
<path d="M10.235 25.175L0.05 0.499998H4.81L12.195 19.33L19.545 0.499998H24.2L14.015 25.175H10.235ZM28.645 25V0.499998H32.95V25H28.645ZM39.5084 25V0.499998H48.6434C52.4701 0.499998 55.5967 1.66667 58.0234 4C60.4501 6.31 61.6634 9.22667 61.6634 12.75C61.6634 16.25 60.4384 19.1667 57.9884 21.5C55.5617 23.8333 52.4467 25 48.6434 25H39.5084ZM43.8134 21.08H48.6434C51.1867 21.08 53.2401 20.31 54.8034 18.77C56.3667 17.2067 57.1484 15.2 57.1484 12.75C57.1484 10.3233 56.3667 8.32833 54.8034 6.765C53.2401 5.20167 51.1867 4.42 48.6434 4.42H43.8134V21.08ZM76.9313 25.385C73.688 25.385 71.133 24.4633 69.2663 22.62C67.423 20.7767 66.5013 18.105 66.5013 14.605V0.499998H70.8063V14.43C70.8063 16.67 71.3547 18.3967 72.4513 19.61C73.548 20.8233 75.0647 21.43 77.0013 21.43C78.938 21.43 80.443 20.8467 81.5163 19.68C82.613 18.5133 83.1613 16.8217 83.1613 14.605V0.499998H87.4663V14.395C87.4663 17.965 86.533 20.695 84.6663 22.585C82.7997 24.4517 80.2213 25.385 76.9313 25.385ZM104.751 25.42C101.204 25.42 98.2406 24.2067 95.8606 21.78C93.4806 19.33 92.2906 16.32 92.2906 12.75C92.2906 9.20333 93.4806 6.205 95.8606 3.755C98.2406 1.305 101.262 0.0799996 104.926 0.0799996C107.049 0.0799996 108.846 0.406666 110.316 1.06C111.809 1.71333 113.209 2.65833 114.516 3.895L111.751 7.08C109.557 5.05 107.271 4.035 104.891 4.035C102.557 4.035 100.621 4.875 99.0806 6.555C97.5639 8.235 96.8056 10.3 96.8056 12.75C96.8056 15.1767 97.5756 17.2417 99.1156 18.945C100.656 20.625 102.581 21.465 104.891 21.465C106.291 21.465 107.527 21.2083 108.601 20.695C109.674 20.1583 110.782 19.3533 111.926 18.28L114.691 21.08C113.314 22.5267 111.856 23.6117 110.316 24.335C108.776 25.0583 106.921 25.42 104.751 25.42ZM119.215 25V0.499998H123.52V10.685H135.21V0.499998H139.515V25H135.21V14.675H123.52V25H119.215ZM146.052 25V0.499998H150.357V25H146.052Z" fill="#169FFD"/>
</svg>
