<svg width="24" height="24" viewBox="0 0 24 24" fill="#F4F4F4" fill-opacity="0.25" xmlns="http://www.w3.org/2000/svg">
<g id="document_file_documents_icon_153919 1">
<g id="document_x2C__file">
<path id="Vector" d="M20.5 23H6C5.7245 23 5.5 22.7755 5.5 22.5V21.75C5.5 21.612 5.612 21.5 5.75 21.5C5.888 21.5 6 21.612 6 21.75V22.5H20.5V3.5H19.25C19.1115 3.5 19 3.388 19 3.25C19 3.112 19.1115 3 19.25 3H20.5C20.7755 3 21 3.2245 21 3.5V22.5C21 22.7755 20.7755 23 20.5 23Z"/>
<path id="Vector_2" d="M18.0002 21H3.50024C3.22474 21 3.00024 20.7755 3.00024 20.5V5.1465L7.14624 1H18.0002C18.2757 1 18.5002 1.2245 18.5002 1.5V20.5C18.5002 20.7755 18.2757 21 18.0002 21ZM3.50024 5.3535V20.5H18.0002V1.5H7.35374L3.50024 5.3535Z"/>
<path id="Vector_3" d="M6.99998 5.49988H3.24998C3.14898 5.49988 3.05748 5.43888 3.01898 5.34538C2.97998 5.25188 3.00148 5.14438 3.07298 5.07288L7.07298 1.07288C7.17048 0.975381 7.32898 0.975381 7.42648 1.07288C7.52398 1.17038 7.52398 1.32888 7.42648 1.42638L3.85348 4.99988H6.99998V2.74988C6.99998 2.61188 7.11198 2.49988 7.24998 2.49988C7.38798 2.49988 7.49998 2.61188 7.49998 2.74988V4.99988C7.49998 5.27538 7.27548 5.49988 6.99998 5.49988Z"/>
<g id="Group">
<path id="Vector_4" d="M15.25 13.5H6.25C6.112 13.5 6 13.388 6 13.25C6 13.112 6.112 13 6.25 13H15.25C15.388 13 15.5 13.112 15.5 13.25C15.5 13.388 15.388 13.5 15.25 13.5Z"/>
<path id="Vector_5" d="M15.25 12H6.25C6.112 12 6 11.888 6 11.75C6 11.612 6.112 11.5 6.25 11.5H15.25C15.388 11.5 15.5 11.612 15.5 11.75C15.5 11.888 15.388 12 15.25 12Z"/>
<path id="Vector_6" d="M15.25 10.5H6.25C6.112 10.5 6 10.388 6 10.25C6 10.112 6.112 10 6.25 10H15.25C15.388 10 15.5 10.112 15.5 10.25C15.5 10.388 15.388 10.5 15.25 10.5Z"/>
<path id="Vector_7" d="M12.75 15H6.25C6.112 15 6 14.888 6 14.75C6 14.612 6.112 14.5 6.25 14.5H12.75C12.888 14.5 13 14.612 13 14.75C13 14.888 12.888 15 12.75 15Z"/>
<path id="Vector_8" d="M12.75 7.5H8.75C8.612 7.5 8.5 7.388 8.5 7.25C8.5 7.112 8.612 7 8.75 7H12.75C12.888 7 13 7.112 13 7.25C13 7.388 12.888 7.5 12.75 7.5Z"/>
<path id="Vector_9" d="M15.25 9H6.25C6.112 9 6 8.888 6 8.75C6 8.612 6.112 8.5 6.25 8.5H15.25C15.388 8.5 15.5 8.612 15.5 8.75C15.5 8.888 15.388 9 15.25 9Z"/>
</g>
</g>
</g>
</svg>
