<svg width="24" height="24" viewBox="0 0 24 24" fill="#F4F4F4" fill-opacity="0.25" xmlns="http://www.w3.org/2000/svg">
<g id="result_clipboard_check_mark_icon_153913 1">
<g id="result_x2C__clipboard_x2C__check_mark">
<path id="Vector" d="M20.25 23H3.75C3.3365 23 3 22.6635 3 22.25V3.25C3 2.8365 3.3365 2.5 3.75 2.5H7.271C7.409 2.5 7.521 2.612 7.521 2.75C7.521 2.888 7.409 3 7.271 3H3.75C3.612 3 3.5 3.112 3.5 3.25V22.25C3.5 22.388 3.612 22.5 3.75 22.5H20.25C20.388 22.5 20.5 22.388 20.5 22.25V3.25C20.5 3.112 20.388 3 20.25 3H16.7715C16.6335 3 16.5215 2.888 16.5215 2.75C16.5215 2.612 16.6335 2.5 16.7715 2.5H20.25C20.6635 2.5 21 2.8365 21 3.25V22.25C21 22.6635 20.6635 23 20.25 23Z"/>
<path id="Vector_2" d="M16.1595 21.5H5C4.7245 21.5 4.5 21.2755 4.5 21V4C4.5 3.7245 4.7245 3.5 5 3.5H7.25C7.388 3.5 7.5 3.612 7.5 3.75C7.5 3.888 7.388 4 7.25 4H5V21H16.1595L19 18.633V4H16.75C16.612 4 16.5 3.888 16.5 3.75C16.5 3.612 16.612 3.5 16.75 3.5H19C19.2755 3.5 19.5 3.7245 19.5 4V18.633C19.5 18.781 19.435 18.921 19.321 19.0165L16.48 21.384C16.39 21.459 16.2765 21.5 16.1595 21.5Z"/>
<g id="Group">
<path id="Vector_3" d="M16.351 21.387C16.3005 21.387 16.2495 21.376 16.2015 21.3535C16.077 21.295 16 21.174 16 21.0365V19C16 18.7245 16.2245 18.5 16.5 18.5H18.9735C19.123 18.5 19.2525 18.591 19.303 18.7315C19.3535 18.872 19.312 19.024 19.197 19.1195L16.574 21.3055C16.5095 21.359 16.431 21.387 16.351 21.387ZM16.5 19V20.7165L18.5595 19H16.5Z"/>
</g>
<g id="Group_2">
<path id="Vector_4" d="M15.5074 5H8.50745C8.23195 5 8.00745 4.7755 8.00745 4.5V2.5C8.00745 2.2245 8.23195 2 8.50745 2H10.4329C10.7204 1.3955 11.3324 1 12.0074 1C12.6829 1 13.2949 1.3955 13.5824 2H15.5074C15.7829 2 16.0074 2.2245 16.0074 2.5V4.5C16.0074 4.7755 15.7829 5 15.5074 5ZM8.50745 2.5V4.5H15.5074V2.5H13.4154C13.3099 2.5 13.2154 2.4335 13.1799 2.3335C13.0024 1.835 12.5314 1.5 12.0074 1.5C11.4834 1.5 11.0124 1.835 10.8354 2.3335C10.7999 2.4335 10.7054 2.5 10.5994 2.5H8.50745Z"/>
</g>
<g id="Group_3">
<path id="Vector_5" d="M9.25 17.5H7.25C7.112 17.5 7 17.388 7 17.25V15.25C7 15.112 7.112 15 7.25 15H9.25C9.388 15 9.5 15.112 9.5 15.25V17.25C9.5 17.388 9.388 17.5 9.25 17.5ZM7.5 17H9V15.5H7.5V17Z"/>
<path id="Vector_6" d="M9.25 13.5H7.25C7.112 13.5 7 13.388 7 13.25V11.25C7 11.112 7.112 11 7.25 11H9.25C9.388 11 9.5 11.112 9.5 11.25V13.25C9.5 13.388 9.388 13.5 9.25 13.5ZM7.5 13H9V11.5H7.5V13Z"/>
<path id="Vector_7" d="M9.25 9.5H7.25C7.112 9.5 7 9.388 7 9.25V7.25C7 7.112 7.112 7 7.25 7H9.25C9.388 7 9.5 7.112 9.5 7.25V9.25C9.5 9.388 9.388 9.5 9.25 9.5ZM7.5 9H9V7.5H7.5V9Z"/>
<path id="Vector_8" d="M16.75 17H10.75C10.612 17 10.5 16.888 10.5 16.75C10.5 16.612 10.612 16.5 10.75 16.5H16.75C16.888 16.5 17 16.612 17 16.75C17 16.888 16.888 17 16.75 17Z"/>
<path id="Vector_9" d="M16.75 16H10.75C10.612 16 10.5 15.888 10.5 15.75C10.5 15.612 10.612 15.5 10.75 15.5H16.75C16.888 15.5 17 15.612 17 15.75C17 15.888 16.888 16 16.75 16Z"/>
<path id="Vector_10" d="M16.75 13H10.75C10.612 13 10.5 12.888 10.5 12.75C10.5 12.612 10.612 12.5 10.75 12.5H16.75C16.888 12.5 17 12.612 17 12.75C17 12.888 16.888 13 16.75 13Z"/>
<path id="Vector_11" d="M16.75 12H10.75C10.612 12 10.5 11.888 10.5 11.75C10.5 11.612 10.612 11.5 10.75 11.5H16.75C16.888 11.5 17 11.612 17 11.75C17 11.888 16.888 12 16.75 12Z"/>
<path id="Vector_12" d="M16.75 9H10.75C10.612 9 10.5 8.888 10.5 8.75C10.5 8.612 10.612 8.5 10.75 8.5H16.75C16.888 8.5 17 8.612 17 8.75C17 8.888 16.888 9 16.75 9Z"/>
<path id="Vector_13" d="M16.75 8H10.75C10.612 8 10.5 7.888 10.5 7.75C10.5 7.612 10.612 7.5 10.75 7.5H16.75C16.888 7.5 17 7.612 17 7.75C17 7.888 16.888 8 16.75 8Z"/>
</g>
</g>
</g>
</svg>
